<?xml version="1.0" encoding="UTF-8" standalone="no"?>
<svg
   xmlns:dc="http://purl.org/dc/elements/1.1/"
   xmlns:cc="http://creativecommons.org/ns#"
   xmlns:rdf="http://www.w3.org/1999/02/22-rdf-syntax-ns#"
   xmlns:svg="http://www.w3.org/2000/svg"
   xmlns="http://www.w3.org/2000/svg"
   viewBox="0 0 644.32586 254.09625"
   height="254.09625"
   width="644.32587"
   xml:space="preserve"
   version="1.1"
   id="svg2"><metadata
     id="metadata8"><rdf:RDF><cc:Work
         rdf:about=""><dc:format>image/svg+xml</dc:format><dc:type
           rdf:resource="http://purl.org/dc/dcmitype/StillImage" /><dc:title></dc:title></cc:Work></rdf:RDF></metadata><defs
     id="defs6" /><g
     transform="matrix(1.25,0,0,-1.25,-23.721625,732.9325)"
     id="g10"><g
       transform="scale(0.1,0.1)"
       id="g12"><path
         id="path14"
         style="fill:#40446d;fill-opacity:1;fill-rule:nonzero;stroke:none"
         d="m 300.996,5131.76 c -61.519,0 -111.223,-51.21 -111.223,-114.3 l 0,-515.53 c 0,-62.96 49.704,-114.42 111.223,-114.42 l 4932.364,0 c 61.26,0 111.02,51.46 111.02,114.42 l 0,515.53 c 0,63.09 -49.76,114.3 -111.02,114.3 l -4932.364,0" /><path
         id="path16"
         style="fill:#ffffff;fill-opacity:1;fill-rule:nonzero;stroke:none"
         d="m 2950.72,4858.77 c 0,-52.38 53.95,-121.09 294.15,-147.34 86.66,-9.4 134.02,-25.47 134.02,-47.54 0,-22.6 -59.77,-33.05 -122.91,-29.26 -63.81,3.79 -84.52,44.28 -84.25,44.67 l -232.63,0 c 0,-15.02 9.8,-148.77 351.23,-148.77 157.19,0 327.19,37.23 327.19,156.61 0,110.1 -248.96,131.4 -322.36,140.8 -56.43,7.06 -105.01,24.56 -105.01,43.24 0,30.3 83.33,31.21 92.6,31.47 42.51,-3.13 71.12,-17.63 86.21,-43.36 l 233.15,-0.52 c -40.96,97.7 -134.67,142.63 -323.02,142.63 -224.98,0 -328.37,-71.31 -328.37,-142.63" /><path
         id="path18"
         style="fill:#ffffff;fill-opacity:1;fill-rule:nonzero;stroke:none"
         d="m 1549.87,4983.5 -269,-445.13 236.35,0 35.2,59.56 238.83,0 41.6,-59.56 237.53,0 -272.67,445.13 -247.84,0 m 121.55,-138.84 76.4,-157.91 -153.14,0 76.74,157.91" /><path
         id="path20"
         style="fill:#ffffff;fill-opacity:1;fill-rule:nonzero;stroke:none"
         d="m 924.293,4984.55 -147.66,-272.99 -135.055,272.99 -305.64,0 0,-445.14 227.66,0 0,201.15 -11.625,81.9 137.867,-269.99 166.012,0 148.568,268.81 -11.357,-79.42 -0.258,-202.45 226.155,0 0,445.14 -294.667,0" /><path
         id="path22"
         style="fill:#ffffff;fill-opacity:1;fill-rule:nonzero;stroke:none"
         d="m 2131.96,4984.55 0,-445.14 244.58,0 0,152.3 135.38,0 c 17.77,0 68.31,-7.58 68.31,-60.47 l 2.82,-57.61 5.35,-24.94 c 4.18,-5.75 13.65,-8.89 28.54,-9.28 l 223.62,0 c 0,16.46 -22.35,19.2 -22.35,31.61 l -1.5,87.9 c 0,55.13 -67,79.29 -121.92,91.96 82.22,9.4 119.51,48.33 119.51,119.51 0,68.06 -86.27,114.16 -241.77,114.16 l -440.57,0 m 256.53,-103.84 132.77,0 c 0,0 78.37,0 78.37,-45.58 0,-46.11 -76.21,-46.11 -76.21,-46.11 l -134.8,0 -0.13,91.69" /><path
         id="path24"
         style="fill:#ffffff;fill-opacity:1;fill-rule:nonzero;stroke:none"
         d="m 3717.44,4766.42 c 0,-133.09 175.61,-241.11 392.36,-241.11 216.43,0 392.11,108.02 392.11,241.11 0,133.23 -175.68,241.25 -392.11,241.25 -216.75,0 -392.36,-108.02 -392.36,-241.25 m 245.95,0 c 0,68.18 65.44,123.69 146.41,123.69 80.73,0 146.04,-55.51 146.04,-123.69 0,-68.31 -65.31,-123.82 -146.04,-123.82 -80.97,0 -146.41,55.51 -146.41,123.82" /><path
         id="path26"
         style="fill:#ffffff;fill-opacity:1;fill-rule:nonzero;stroke:none"
         d="m 4604.97,4983.5 0,-445.26 589.46,0.26 0,110.63 -342.98,0 0,334.37 -246.48,0" /><path
         id="path28"
         style="fill:#ed2631;fill-opacity:1;fill-rule:nonzero;stroke:none"
         d="m 663.32,5863.46 -71.898,-219.69 -234.195,0 191.484,-141.98 -75.172,-225.58 190.238,139.5 188.938,-139.5 -75.297,225.58 190.766,141.98 -233.672,0 -71.192,219.69" /><path
         id="path30"
         style="fill:#ed2631;fill-opacity:1;fill-rule:nonzero;stroke:none"
         d="m 1715.56,5863.46 -71.84,-219.69 -234.32,0 191.55,-141.98 -75.17,-225.58 190.17,139.5 189,-139.5 -75.3,225.58 190.7,141.98 -233.6,0 -71.19,219.69" /><path
         id="path32"
         style="fill:#ed2631;fill-opacity:1;fill-rule:nonzero;stroke:none"
         d="m 2767.67,5863.46 -71.84,-219.69 -234.33,0 191.68,-141.98 -75.3,-225.58 190.18,139.5 189.13,-139.5 -75.43,225.58 190.7,141.98 -233.67,0 -71.12,219.69" /><path
         id="path34"
         style="fill:#ed2631;fill-opacity:1;fill-rule:nonzero;stroke:none"
         d="m 3819.71,5863.46 -71.84,-219.69 -234.33,0 191.68,-141.98 -75.3,-225.58 190.31,139.5 189.01,-139.5 -75.43,225.58 190.76,141.98 -233.67,0 -71.19,219.69" /><path
         id="path36"
         style="fill:#ed2631;fill-opacity:1;fill-rule:nonzero;stroke:none"
         d="m 4871.82,5863.46 -71.84,-219.69 -234.2,0 191.62,-141.98 -75.23,-225.58 190.17,139.5 189.01,-139.5 -75.37,225.58 190.7,141.98 -233.81,0 -71.05,219.69" /><path
         id="path38"
         style="fill:#40446d;fill-opacity:1;fill-rule:nonzero;stroke:none"
         d="m 4060.96,4172.64 -9.02,-22.2 9.28,-23.25 22.73,-9.54 21.94,9.41 9.27,22.46 -9.27,22.99 -22.47,9.41 -22.46,-9.28 m -2588.41,0 -9.34,-22.2 9.48,-23.25 22.46,-9.54 22.2,9.41 9.21,22.46 -9.34,22.99 -22.46,9.41 -22.21,-9.28 m 1848.66,-15.54 c -13.91,-13.45 -20.96,-29.12 -20.96,-47.81 0,-12.8 4.12,-25.73 12.54,-38.66 8.42,-12.54 27.3,-31.21 56.49,-54.86 15.35,-12.4 25.02,-21.81 29.52,-27.81 l 6.73,-17.9 -8.88,-17.77 -22.08,-7.83 c -16.85,0 -31.41,12.01 -44.34,35.66 l -42.58,-26 c 10.18,-19.72 22.08,-34.48 36.37,-43.88 13.91,-9.01 30.5,-13.85 49.51,-13.85 24.22,0 44.15,7.19 59.23,21.56 15.02,14.1 22.67,32.13 22.67,53.94 l -6.47,31.35 -21.81,29.78 c -4.12,4.31 -16.01,14.5 -35.27,30.82 -20.77,17.37 -33.18,28.87 -37.09,34.22 l -4.64,12.67 6.27,12.02 16.45,5.35 c 13.65,0 27.17,-9.01 40.24,-27.43 l 37.61,33.31 c -14.04,16.07 -27.04,27.43 -39.18,33.57 -12.09,6.27 -24.49,9.4 -38.01,9.4 -20.71,0 -38.14,-6.79 -52.32,-19.85 m -1587.04,16.2 0,-72.63 -25.27,0 0,-42.58 25.27,0 0,-155.17 49.51,0 0,155.17 29.25,0 0,42.58 -29.25,0 0,72.63 -49.51,0 m -417.05,-3.14 0,-267.24 124.93,0 0,48.59 -73.99,0 0,218.65 -50.94,0 m 2885.29,-72.1 -18.41,-22.2 0,24.81 -42.46,0 0,-197.75 49.25,0 0,80.07 -0.26,9.66 c 0,27.44 2.74,45.98 7.83,55.52 l 19.34,14.1 14.49,-4.18 15.42,42.58 -20.25,4.97 -24.95,-7.58 m -416.39,0 -18.42,-22.2 0,24.81 -42.33,0 0,-197.75 49.11,0 0,80.07 -0.12,9.66 c 0,27.44 2.55,45.98 7.77,55.52 l 19.4,14.1 14.43,-4.18 15.21,42.58 -20.04,4.97 -25.01,-7.58 m -267.38,-22.2 c -19.53,-19.98 -29.26,-45.06 -29.26,-75.11 0,-29.38 9.73,-53.94 29.39,-73.4 19.27,-19.59 44.54,-29.39 75.43,-29.39 20.06,0 37.62,3.4 51.92,10.58 14.56,7.05 27.04,18.03 37.3,32.91 l -41.6,19.34 c -13.33,-12.8 -29.13,-19.21 -48.01,-19.21 -15.34,0 -28.08,4.05 -38.14,12.29 -9.99,8.35 -16.13,19.72 -18.41,33.56 l 159.28,0 0.39,9.54 c 0,32.78 -9.86,58.91 -29.39,78.89 -19.4,20.11 -44.8,29.78 -75.88,29.78 -29.26,0 -53.75,-9.67 -73.02,-29.78 m 38.93,-23.77 c 10.45,7.7 22.59,11.75 36.24,11.75 13,0 24.1,-3.52 33.7,-10.45 l 19.39,-26.91 -107.49,0 c 5.62,12.41 11.75,20.9 18.16,25.61 m -583.92,24.42 c -18.22,-19.46 -27.17,-44.67 -27.17,-75.11 0,-29.51 9.34,-53.8 27.95,-73.79 18.74,-19.72 40.82,-29.65 66.35,-29.65 l 31.68,6.01 29.19,19.98 0,-21.03 49.31,0 0,197.75 -49.31,0 0,-21.68 -29.06,19.99 -33.31,6.66 c -25.79,0 -47.6,-9.54 -65.63,-29.13 m 37.94,-116.64 c -10.57,11.1 -15.73,25.08 -15.73,42.19 0,16.85 5.16,30.83 15.34,41.67 10.19,10.71 22.99,16.06 38.4,16.06 15.61,0 28.74,-5.22 38.93,-15.93 10.32,-10.58 15.34,-24.43 15.34,-41.67 0,-17.63 -5.02,-31.74 -15.34,-42.58 -10.19,-10.84 -23.32,-16.33 -38.67,-16.33 -15.41,0 -28.08,5.49 -38.27,16.59 m -125.85,138.19 -18.35,-22.2 0,24.81 -42.25,0 0,-197.75 49.11,0 0,80.07 -0.13,9.66 c 0,27.44 2.41,45.98 7.77,55.52 l 19.53,14.1 14.17,-4.18 15.48,42.58 -20.18,4.97 -25.15,-7.58 m -276.57,-21.55 c -18.1,-19.46 -27.17,-44.67 -27.17,-75.11 0,-29.51 9.34,-53.8 27.95,-73.79 18.74,-19.72 40.68,-29.65 66.35,-29.65 l 31.68,6.01 29.32,19.98 0,-21.03 49.17,0 0,197.75 -49.17,0 0,-21.68 -29.06,19.99 -33.44,6.66 c -25.8,0 -47.74,-9.54 -65.63,-29.13 m 37.81,-116.64 c -10.38,11.1 -15.48,25.08 -15.48,42.19 0,16.85 5.1,30.83 15.22,41.67 10.18,10.71 22.92,16.06 38.4,16.06 15.54,0 28.61,-5.22 39.05,-15.93 10.2,-10.58 15.42,-24.43 15.42,-41.67 0,-17.63 -5.22,-31.74 -15.42,-42.58 -10.44,-10.84 -23.38,-16.33 -38.92,-16.33 -15.22,0 -27.96,5.49 -38.27,16.59 m -223.09,139.11 -29.26,-19.99 0,21.68 -49.24,0 0,-269.98 49.24,0 0,93.26 29.26,-19.98 32,-6.01 c 25.54,0 47.61,9.93 66.02,29.65 18.88,19.99 28.15,44.28 28.15,73.79 0,30.44 -9.01,55.65 -27.16,75.11 -17.96,19.59 -39.84,29.13 -65.7,29.13 l -33.31,-6.66 m -15.87,-139.37 c -10.19,10.84 -15.41,24.95 -15.41,42.58 0,17.24 5.22,31.09 15.41,41.67 10.25,10.71 23.25,15.93 38.79,15.93 15.61,0 28.35,-5.35 38.6,-16.06 10.06,-10.84 15.28,-24.82 15.28,-41.67 0,-17.11 -5.22,-31.09 -15.67,-42.19 -10.13,-11.1 -22.99,-16.59 -38.21,-16.59 -15.54,0 -28.54,5.49 -38.79,16.33 m -320.33,129.31 c -12.22,-10.84 -18.35,-24.29 -18.35,-39.84 0,-24.29 16.19,-44.4 48.13,-60.47 l 16.71,-8.49 c 14.17,-7.32 21.55,-14.63 21.55,-22.21 l -6.13,-10.97 -15.55,-4.7 -20.96,6.4 -20.38,16.33 -30.63,-33.31 c 17.44,-22.47 40.3,-33.7 69.03,-33.7 21.82,0 38.93,5.75 51.93,17.5 12.99,11.89 19.39,26.52 19.39,44.02 0,13.06 -3.79,24.95 -10.84,34.48 -7.12,9.8 -20.18,19.47 -39.31,28.87 l -18.1,9.01 -14.95,9.41 -2.94,7.31 4.83,8.88 13.06,3.27 c 10.06,0 21.43,-6.14 33.7,-18.29 l 30.76,30.43 -28.73,24.43 c -11.37,5.75 -23.25,8.36 -35.98,8.36 -18.88,0 -34.36,-5.62 -46.24,-16.72 m -223.81,-9.93 c -22.47,-20.63 -33.7,-46.5 -33.7,-77.32 0,-29 9.92,-53.29 29.98,-73.54 20.05,-20.11 44.14,-30.17 72.49,-30.17 19.26,0 36.89,4.44 52.96,13.58 15.81,9.28 28.6,21.82 37.88,38.27 9.08,16.07 13.91,33.44 13.91,52.25 0,18.42 -4.7,35.92 -13.78,51.73 -9.41,15.93 -22.2,28.6 -38.53,37.87 -16.46,9.28 -33.83,13.98 -52.71,13.98 -25.66,0 -48.52,-8.88 -68.5,-26.65 M 1894.64,3960 c -10.13,10.58 -15.22,24.56 -15.22,41.8 0,16.72 5.22,30.3 15.22,41.14 10.31,10.71 23.31,16.33 38.66,16.33 15.67,0 28.47,-5.62 38.66,-16.2 10.06,-10.58 15.15,-24.16 15.15,-41.27 0,-16.98 -5.09,-30.56 -15.54,-41.54 -10.19,-10.84 -22.86,-16.33 -38.66,-16.33 -15.35,0 -28.09,5.49 -38.27,16.07 m -320.47,128.92 c -12.02,-10.84 -18.03,-24.29 -18.03,-39.84 0,-24.29 16.07,-44.4 48.14,-60.47 l 16.58,-8.49 c 14.44,-7.32 21.69,-14.63 21.69,-22.21 l -6.14,-10.97 -15.8,-4.7 -20.84,6.4 -20.24,16.33 -30.77,-33.31 c 17.57,-22.47 40.3,-33.7 69.03,-33.7 21.69,0 38.93,5.75 52.05,17.5 12.93,11.89 19.27,26.52 19.27,44.02 0,13.06 -3.79,24.95 -10.84,34.48 -7.12,9.8 -20.24,19.47 -39.31,28.87 l -18.1,9.01 -14.82,9.41 -2.94,7.31 4.64,8.88 13.12,3.27 c 10.19,0 21.56,-6.14 33.84,-18.29 l 30.62,30.43 -28.6,24.43 c -11.36,5.75 -23.38,8.36 -36.25,8.36 -18.87,0 -34.22,-5.62 -46.3,-16.72 m 2484.31,-186 49.76,0 0,197.75 -49.76,0 0,-197.75 z m -73.8,197.75 -49.77,-116.77 -49.89,116.77 -50.42,0 84.25,-197.75 32.13,0 84.12,197.75 -50.42,0 M 1470,3902.92 l 49.64,0 0,197.75 -49.64,0 0,-197.75" /></g></g></svg>